<svg xmlns="http://www.w3.org/2000/svg" width="94.391" height="86"><defs><style>.b{fill:#162b75}.c{fill:#fe8639}.d{fill:#f7be9d}</style></defs><g transform="translate(-1584.491 -29.325)"><path d="m1584.6 81.091 45.51-15.17 45.51 15.17-45.51 18.541Z" transform="translate(-.108 -36.596)" style="fill:#f26522"/><path class="b" d="m1630.001 63.036-32.026-13.048v18.1l32.026 13.485 32.026-13.485v-18.1Z"/><path class="c" d="m1584.492 44.495 40.453 16.481 40.454-16.481-40.454-13.485Z"/><path class="d" d="M1644.319 86.364h-16.005a11.28 11.28 0 0 0-7.975 3.3l-13.614 12 9.4 9.4 13.937-12.324a3.758 3.758 0 0 1 2.658-1.1h11.6a5.639 5.639 0 0 0 0-11.278Z"/><path class="d" d="M1670.338 81.697c-1.768-1.767-5.993-1.224-7.76.544l-14.6 13.788h-23.411c-1.2 0-2.351 3.468-3.2 4.317l-5.464 5.464 6.789 6.789 4.526-4.526h21.693a6.744 6.744 0 0 0 4.8-1.989l17.442-17.441c1.768-1.768.952-5.177-.816-6.945Z"/><path class="b" d="m1610.091 96.389 11.368 11.357-8.894 7.578-23.968-.038 18.9-18.9a1.836 1.836 0 0 1 2.6 0Z"/><path class="b" d="m1619.809 106.107 6.045 6.045a1.836 1.836 0 0 1 0 2.6l-.537.538h-14.688Z"/><path class="c" d="M1672.14 44.495h3.371v16.856h-3.371Z"/><path class="c" d="m1673.826 59.665-5.057 5.057 5.057 10.113 5.057-10.113Z"/><rect width="18" height="2" rx="1" transform="translate(1630.536 94.736)" style="fill:#eea884"/></g></svg>
