<svg xmlns="http://www.w3.org/2000/svg" width="87.515" height="90.054"><defs><style>.a{fill:#f7be9d}.b{fill:#f26522}.c{fill:#fe8639}</style></defs><path class="a" d="M21.879 90.054H0l3.126-9.377 3.125-1.562h9.377l1.563 1.563 4.688 1.563Z"/><path class="b" d="M65.636 74.427 43.757 90.05l-6.251-7.81 1.563-1.563L60.947 65.05Z"/><path class="c" d="M25.005 65.05 3.126 80.678h14.065L39.069 65.05ZM69.543 65.05 47.664 80.678l1.563 1.563h10.937l1.563-1.563 21.88-15.628Z"/><path class="b" d="M43.757 74.427 21.878 90.05l-4.688-9.372L39.069 65.05Z"/><path class="a" d="M43.758 90.054H21.879l3.126-9.377 3.125-1.562h9.377l1.563 1.563Z"/><path class="b" d="M87.515 74.427 65.636 90.05l-6.251-7.81 1.563-1.563L82.826 65.05Z"/><path class="c" d="M46.883 65.05 25.004 80.678h14.065L60.947 65.05Z"/><path class="a" d="M65.636 90.054H43.757l3.126-9.377h14.064Z"/><path class="b" d="M78.138 60.362 56.259 75.985l-6.251-7.81 1.563-1.563 21.878-15.627Z"/><path class="c" d="M37.507 50.985 15.628 66.613l3.126 1.563h9.374l1.563-1.563 21.88-15.628Z"/><path class="b" d="M56.26 60.362 34.381 75.985l-6.251-7.81 1.563-1.563 21.878-15.627Z"/><path class="a" d="m9.243 23.874-1.748-3.506-1.749 3.506a4.987 4.987 0 0 1-2.24 2.24L0 27.863l3.506 1.749a4.988 4.988 0 0 1 2.24 2.24l1.749 3.506 1.749-3.506a4.987 4.987 0 0 1 2.24-2.24l3.506-1.749-3.506-1.749a4.986 4.986 0 0 1-2.241-2.24ZM77.622 28.075l-1.828-3.657-1.828 3.657a5.2 5.2 0 0 1-2.329 2.329l-3.657 1.828 3.657 1.828a5.2 5.2 0 0 1 2.329 2.329l1.828 3.657 1.828-3.657a5.2 5.2 0 0 1 2.329-2.329l3.657-1.828-3.657-1.828a5.2 5.2 0 0 1-2.329-2.329ZM14.183 47.766l-1.208-2.415-1.208 2.415a3.436 3.436 0 0 1-1.538 1.538l-2.415 1.208 2.415 1.208a3.437 3.437 0 0 1 1.538 1.538l1.208 2.415 1.208-2.415a3.436 3.436 0 0 1 1.538-1.538l2.415-1.208-2.415-1.208a3.435 3.435 0 0 1-1.538-1.538Z"/><path class="c" d="M59.385 50.985 37.506 66.613l1.563 1.563h10.937l1.563-1.563 21.88-15.628ZM46.883 38.483 25.004 54.111l3.126 1.563h7.814l3.126-1.563 21.877-15.628Z"/><path class="b" d="M65.636 47.86 43.757 63.483l-6.251-7.81 1.563-1.563 21.878-15.627Z"/><path class="a" d="M56.26 75.99H34.381l3.126-9.377h14.064ZM34.381 75.99H12.502l3.126-9.377h14.064ZM43.758 63.488H21.879l3.126-9.377h14.064Z"/><g transform="translate(28.716)"><circle cx="15.599" cy="15.599" r="15.599" transform="translate(1.234 .828)" style="fill:#162b75"/><path class="c" d="M16.6 33.209A16.623 16.623 0 0 1 0 16.6 16.623 16.623 0 0 1 16.6 0a16.623 16.623 0 0 1 16.6 16.6 16.623 16.623 0 0 1-16.6 16.609Zm0-31.255A14.668 14.668 0 0 0 1.953 16.6 14.667 14.667 0 0 0 16.6 31.255 14.668 14.668 0 0 0 31.255 16.6 14.668 14.668 0 0 0 16.6 1.953Z"/></g><path d="M.448-17.227h9.967q.084.011.084.084v.948a.075.075 0 0 1-.084.084H6.664v.084a2.935 2.935 0 0 1 1.243 1.77l.042.306h2.465q.084.011.084.084v.948a.075.075 0 0 1-.084.084h-2.37a4.1 4.1 0 0 1-1.949 3.1 6.13 6.13 0 0 1-2.455.99q0 .042-.084.042L8.908-1.77v.084H6.874q-.032 0-6.206-8.049v-.042h.643q3.414 0 4.1-2.455a3.52 3.52 0 0 0 .042-.474v-.126h-5a.075.075 0 0 1-.084-.084v-.948q.011-.084.084-.084H5.41a2.753 2.753 0 0 0-1.075-1.559 4.513 4.513 0 0 0-2.076-.6H.448a.075.075 0 0 1-.084-.084v-.948q.01-.088.084-.088Z" transform="translate(39.522 26.913)" style="fill:#fff"/></svg>
